<?xml version="1.0" encoding="iso-8859-1"?>
<!-- Generator: Adobe Illustrator 19.0.0, SVG Export Plug-In . SVG Version: 6.00 Build 0)  -->
<svg version="1.1" id="Capa_1" xmlns="http://www.w3.org/2000/svg" xmlns:xlink="http://www.w3.org/1999/xlink" x="0px" y="0px"
	 viewBox="0 0 512 512" style="enable-background:new 0 0 512 512;" xml:space="preserve">
<g>
	<g>
		<path d="M147.064,124.732H76.255c-9.025,0-16.34,7.315-16.34,16.34v229.855c0,9.025,7.315,16.34,16.34,16.34h70.809
			c9.025,0,16.34-7.315,16.34-16.34V141.072C163.404,132.047,156.089,124.732,147.064,124.732z M130.723,354.587H92.596V157.413
			h38.128V354.587z"/>
	</g>
</g>
<g>
	<g>
		<path d="M76.255,190.094v-32.681H16.34c-9.025,0-16.34,7.315-16.34,16.34v164.494c0,9.025,7.315,16.34,16.34,16.34h59.915v-32.681
			H32.681V190.094H76.255z"/>
	</g>
</g>
<g>
	<g>
		<rect x="147.064" y="197.175" width="217.872" height="32.681"/>
	</g>
</g>
<g>
	<g>
		<rect x="147.064" y="282.145" width="217.872" height="32.681"/>
	</g>
</g>
<g>
	<g>
		<path d="M435.745,124.732h-70.809c-9.025,0-16.34,7.315-16.34,16.34v229.855c0,9.025,7.315,16.34,16.34,16.34h70.809
			c9.025,0,16.34-7.315,16.34-16.34V141.072C452.085,132.047,444.77,124.732,435.745,124.732z M419.404,354.587h-38.128V157.413
			h38.128V354.587z"/>
	</g>
</g>
<g>
	<g>
		<path d="M495.66,157.413h-59.915v32.681h43.574v131.813h-43.574v32.681h59.915c9.025,0,16.34-7.315,16.34-16.34V173.753
			C512,164.728,504.685,157.413,495.66,157.413z"/>
	</g>
</g>
<g>
</g>
<g>
</g>
<g>
</g>
<g>
</g>
<g>
</g>
<g>
</g>
<g>
</g>
<g>
</g>
<g>
</g>
<g>
</g>
<g>
</g>
<g>
</g>
<g>
</g>
<g>
</g>
<g>
</g>
</svg>
